<svg xmlns="http://www.w3.org/2000/svg" viewBox="0 0 256 257" aria-hidden="true">
  <defs>
    <linearGradient id="a" x1="-1%" x2="58%" y1="7%" y2="78%">
      <stop offset="0%" stop-color="#41D1FF" />
      <stop offset="100%" stop-color="#BD34FE" />
    </linearGradient>
    <linearGradient id="b" x1="43%" x2="50%" y1="2%" y2="89%">
      <stop offset="0%" stop-color="#FFEA83" />
      <stop offset="8%" stop-color="#FFDD35" />
      <stop offset="100%" stop-color="#FFA800" />
    </linearGradient>
  </defs>
  <path fill="url(#a)" d="M255.2 37.9 134.9 252.9c-2.5 4.5-9 4.5-11.5 0L.8 37.9c-2.7-4.8 1.4-10.6 6.8-9.6l120.7 21.6a6.6 6.6 0 0 0 2.3 0l117.8-21.5c5.4-1 9.5 4.8 6.8 9.5Z" />
  <path fill="url(#b)" d="M185.4.1 96.4 17.6a3.3 3.3 0 0 0-2.6 3l-5.5 92.9a3.3 3.3 0 0 0 4 3.4l24.8-5.7c2.3-.5 4.4 1.5 3.9 3.8l-7.4 36.2c-.5 2.4 1.8 4.5 4.1 3.8l15.3-4.6c2.4-.7 4.6 1.4 4.1 3.8l-11.7 56.6c-.7 3.4 3.8 5.2 5.6 2.3l1.2-1.9 72.4-144.5c1.2-2.4-.9-5.1-3.5-4.6l-25.5 4.9a3.3 3.3 0 0 1-3.8-4.2l16.7-58.5c.6-2.3-1.4-4.4-3.7-4Z" />
</svg>
